<?xml version="1.0" standalone="no"?><!DOCTYPE svg PUBLIC "-//W3C//DTD SVG 1.1//EN" "http://www.w3.org/Graphics/SVG/1.1/DTD/svg11.dtd"><svg t="1586247606286" class="icon" viewBox="0 0 1024 1024" version="1.1" xmlns="http://www.w3.org/2000/svg" p-id="12156" xmlns:xlink="http://www.w3.org/1999/xlink" width="128" height="128"><defs><style type="text/css"></style></defs><path d="M512 15c198.823 0 360 161.177 360 360 0 126.895-109.982 275.894-329.945 446.999L918 822c24.3 0 44 19.7 44 44v99.5c0 24.3-19.7 44-44 44H106c-24.3 0-44-19.7-44-44V866c0-24.3 19.7-44 44-44l375.945-0.001C261.982 650.894 152 501.895 152 375c0-198.823 161.177-360 360-360z m-2 208c-82.843 0-150 67.157-150 150s67.157 150 150 150 150-67.157 150-150-67.157-150-150-150z" fill="#A5ABB6" p-id="12157"></path></svg>