<?xml version="1.0" standalone="no"?><!DOCTYPE svg PUBLIC "-//W3C//DTD SVG 1.1//EN" "http://www.w3.org/Graphics/SVG/1.1/DTD/svg11.dtd"><svg t="1586247236953" class="icon" viewBox="0 0 1024 1024" version="1.1" xmlns="http://www.w3.org/2000/svg" p-id="9713" xmlns:xlink="http://www.w3.org/1999/xlink" width="128" height="128"><defs><style type="text/css"></style></defs><path d="M891.8 65h-632c-35.5 0-64.4 28.8-64.4 64.4v125.3h-66.3c-35.5 0-64.4 28.8-64.4 64.4v575.6c0 35.5 28.8 64.4 64.4 64.4h572.6c35.5 0 64.4-28.8 64.4-64.4v-65.3h125.6c35.5 0 64.4-28.8 64.4-64.4V129.4c0.1-35.6-28.7-64.4-64.3-64.4zM702.2 894.6v0.1c0 0.1-0.2 0.2-0.2 0.2H129.1c-0.1 0-0.2-0.2-0.2-0.2V319v-0.1c0-0.1 0.2-0.2 0.2-0.2h0.1l66.3 0.1S194 794.1 194 797.4c0 17.7 14.3 32 32 32h476.2v65.2zM259.5 129.2c0-0.1 0.2-0.2 0.2-0.2h632.2c0.1 0 0.2 0.2 0.2 0.2V765.1c0 0.1-0.2 0.2-0.2 0.2H259.5V129.2z" fill="" p-id="9714"></path></svg>