<?xml version="1.0" standalone="no"?><!DOCTYPE svg PUBLIC "-//W3C//DTD SVG 1.1//EN" "http://www.w3.org/Graphics/SVG/1.1/DTD/svg11.dtd"><svg t="1586246879834" class="icon" viewBox="0 0 1024 1024" version="1.1" xmlns="http://www.w3.org/2000/svg" p-id="4083" xmlns:xlink="http://www.w3.org/1999/xlink" width="128" height="128"><defs><style type="text/css"></style></defs><path d="M518.826667 932.266667a42.666667 42.666667 0 0 1-26.453334-8.96l-173.226666-133.546667a371.2 371.2 0 0 1-141.653334-292.266667V236.8a42.666667 42.666667 0 0 1 27.306667-40.106667l298.666667-115.2a42.666667 42.666667 0 0 1 30.293333 0l298.666667 115.2a42.666667 42.666667 0 0 1 27.733333 40.106667v260.693333a371.626667 371.626667 0 0 1-142.08 292.266667l-173.226667 133.546667a42.666667 42.666667 0 0 1-26.026666 8.96z m-256-666.453334v231.68a284.16 284.16 0 0 0 108.8 224.426667l147.2 113.493333 146.773333-113.493333a284.586667 284.586667 0 0 0 109.226667-224.426667V265.813333l-256-98.56z" p-id="4084"></path><path d="M518.826667 504.746667a533.333333 533.333333 0 0 1-210.346667-42.666667L203.093333 416.426667a42.666667 42.666667 0 1 1 33.706667-78.08L341.333333 384a448.426667 448.426667 0 0 0 352.853334 0l105.386666-44.8a42.666667 42.666667 0 1 1 33.706667 78.08l-105.386667 45.226667a532.906667 532.906667 0 0 1-209.066666 42.24z" p-id="4085"></path></svg>