<?xml version="1.0" standalone="no"?><!DOCTYPE svg PUBLIC "-//W3C//DTD SVG 1.1//EN" "http://www.w3.org/Graphics/SVG/1.1/DTD/svg11.dtd"><svg t="1586246998758" class="icon" viewBox="0 0 1024 1024" version="1.1" xmlns="http://www.w3.org/2000/svg" p-id="4923" xmlns:xlink="http://www.w3.org/1999/xlink" width="128" height="128"><defs><style type="text/css"></style></defs><path d="M192 64h641c17.673 0 32 14.327 32 32v832c0 17.673-14.327 32-32 32H192c-17.673 0-32-14.327-32-32V96c0-17.673 14.327-32 32-32z m40 64a8 8 0 0 0-8 8v752a8 8 0 0 0 8 8h561a8 8 0 0 0 8-8V136a8 8 0 0 0-8-8H232z m112 176c-30.928 0-56-25.072-56-56s25.072-56 56-56 56 25.072 56 56-25.072 56-56 56z m0 528c-30.928 0-56-25.072-56-56s25.072-56 56-56 56 25.072 56 56-25.072 56-56 56z m0-264c-30.928 0-56-25.072-56-56s25.072-56 56-56 56 25.072 56 56-25.072 56-56 56z m126-352h235c17.673 0 32 14.327 32 32 0 17.673-14.327 32-32 32H470c-17.673 0-32-14.327-32-32 0-17.673 14.327-32 32-32z m0 264h235c17.673 0 32 14.327 32 32 0 17.673-14.327 32-32 32H470c-17.673 0-32-14.327-32-32 0-17.673 14.327-32 32-32z m0 264h235c17.673 0 32 14.327 32 32 0 17.673-14.327 32-32 32H470c-17.673 0-32-14.327-32-32 0-17.673 14.327-32 32-32z" p-id="4924"></path></svg>